HIERARCHY
ROOT Hips
{
	OFFSET 0.000000 0.000000 0.000000
	CHANNELS 6 Xposition Yposition Zposition Zrotation Yrotation Xrotation 
	JOINT LeftUpLeg_virtual
	{
		OFFSET 0.000000 0.000000 0.000000
		CHANNELS 3 Zrotation Yrotation Xrotation
		JOINT LeftUpLeg
		{
			OFFSET 10.205400 -3.823500 0.155100
			CHANNELS 3 Zrotation Yrotation Xrotation
			JOINT LeftLeg
			{
				OFFSET 0.708757 -12.982077 0.567790
				CHANNELS 3 Zrotation Yrotation Xrotation
				JOINT LeftFoot
				{
					OFFSET -0.708756 -10.717838 -2.184338
					CHANNELS 3 Zrotation Yrotation Xrotation
					JOINT LeftToeBase
					{
						OFFSET 0.108149 -7.191104 7.560241
						CHANNELS 3 Zrotation Yrotation Xrotation
						End Site
						{
							OFFSET 0.000000 0.000000 0.000000
						}
					}
				}
			}
		}
	}
	JOINT RightUpLeg_virtual
	{
		OFFSET 0.000000 0.000000 0.000000
		CHANNELS 3 Zrotation Yrotation Xrotation
		JOINT RightUpLeg
		{
			OFFSET -10.205400 -3.823500 0.005500
			CHANNELS 3 Zrotation Yrotation Xrotation
			JOINT RightLeg
			{
				OFFSET -0.708756 -12.982134 0.610632
				CHANNELS 3 Zrotation Yrotation Xrotation
				JOINT RightFoot
				{
					OFFSET 0.708754 -10.717769 -1.945823
					CHANNELS 3 Zrotation Yrotation Xrotation
					JOINT RightToeBase
					{
						OFFSET -0.108140 -7.191069 7.372968
						CHANNELS 3 Zrotation Yrotation Xrotation
						End Site
						{
							OFFSET 0.000000 0.000000 0.000000
						}
					}
				}
			}
		}
	}
	JOINT Spine_virtual
	{
		OFFSET 0.000000 0.000000 0.000000
		CHANNELS 3 Zrotation Yrotation Xrotation
		JOINT Spine
		{
			OFFSET 0.000000 6.876099 0.125700
			CHANNELS 3 Zrotation Yrotation Xrotation
			JOINT Spine1
			{
				OFFSET 0.000000 8.022060 0.146608
				CHANNELS 3 Zrotation Yrotation Xrotation
				JOINT Spine2
				{
					OFFSET 0.000000 9.168068 0.167552
					CHANNELS 3 Zrotation Yrotation Xrotation
					JOINT Neck_virtual
					{
						OFFSET 0.000000 0.000000 0.000000
						CHANNELS 3 Zrotation Yrotation Xrotation
						JOINT Neck
						{
							OFFSET 0.000000 10.314075 0.188496
							CHANNELS 3 Zrotation Yrotation Xrotation
							JOINT Head
							{
								OFFSET 0.000000 7.643700 -2.377400
								CHANNELS 3 Zrotation Yrotation Xrotation
								End Site
								{
									OFFSET 0.000000 0.000000 0.000000
								}
							}
						}
					}
					JOINT LeftShoulder_virtual
					{
						OFFSET 0.000000 0.000000 0.000000
						CHANNELS 3 Zrotation Yrotation Xrotation
						JOINT LeftShoulder
						{
							OFFSET 4.392200 8.824978 0.174984
							CHANNELS 3 Zrotation Yrotation Xrotation
							JOINT LeftArm
							{
								OFFSET 8.771219 -2.981674 -0.026999
								CHANNELS 3 Zrotation Yrotation Xrotation
								JOINT LeftForeArm
								{
									OFFSET 8.512804 0.000000 -0.000000
									CHANNELS 3 Zrotation Yrotation Xrotation
									JOINT LeftHand
									{
										OFFSET 18.484802 0.000000 -0.000000
										CHANNELS 3 Zrotation Yrotation Xrotation
										End Site
										{
											OFFSET 0.000000 0.000000 0.000000
										}
									}
								}
							}
						}
					}
					JOINT RightShoulder_virtual
					{
						OFFSET 0.000000 0.000000 0.000000
						CHANNELS 3 Zrotation Yrotation Xrotation
						JOINT RightShoulder
						{
							OFFSET -4.392200 8.824993 0.141379
							CHANNELS 3 Zrotation Yrotation Xrotation
							JOINT RightArm
							{
								OFFSET -8.771282 -2.981682 -0.094208
								CHANNELS 3 Zrotation Yrotation Xrotation
								JOINT RightForeArm
								{
									OFFSET -8.494598 0.000000 0.000000
									CHANNELS 3 Zrotation Yrotation Xrotation
									JOINT RightHand
									{
										OFFSET -18.483803 0.000000 0.000001
										CHANNELS 3 Zrotation Yrotation Xrotation
										End Site
										{
											OFFSET 0.000000 0.000000 0.000000
										}
									}
								}
							}
						}
					}
				}
			}
		}
	}
}
MOTION
Frames: 4
Frame Time: 0.033333
10.648545 33.643967 -19.809441 -179.541809 60.392717 -179.813650 8.549519 5.524447 80.185444 -31.221396 -13.957664 -95.019802 15.425972 10.419477 42.907860 -10.507992 -0.692739 2.347177 0.000000 0.000000 0.000000 18.042858 -3.788546 86.090655 -21.081809 -24.848993 -118.359501 0.373582 -2.027569 48.962187 2.278176 1.369299 18.689462 0.000000 0.000000 0.000000 16.953281 0.353901 85.380561 9.226942 -2.940944 8.566830 1.762455 -4.070382 8.538404 -0.056341 -0.000538 -0.011975 2.215101 -2.159346 10.667561 -2.400242 -12.088083 6.076488 0.000000 0.000000 0.000000 3.152509 -0.687633 5.203522 -9.940708 -15.767015 3.780015 6.423647 -43.050163 -29.282271 5.975610 -50.303349 -4.508390 0.000000 0.000000 0.000000 -0.860759 0.740779 4.875214 15.097614 4.454236 -0.883975 -10.735850 44.199049 -36.671275 -1.319670 54.721959 0.139500 0.000000 0.000000 0.000000 
10.621407 33.619976 -19.838285 -179.582967 60.253210 -179.898549 8.561471 5.498384 80.149497 -31.175579 -13.982452 -94.909884 15.203513 10.377025 42.936854 -10.403209 -0.592540 2.163870 0.000000 0.000000 0.000000 17.971491 -3.943641 86.159339 -20.969015 -24.909054 -118.436710 0.364666 -2.128151 48.963659 2.229234 1.364468 18.621549 0.000000 0.000000 0.000000 16.875686 0.297480 85.527595 9.329442 -2.842665 8.785628 1.704483 -4.067345 8.560490 -0.011632 0.010988 -0.000862 2.092539 -1.992917 10.573970 -2.519410 -12.329586 5.208085 0.000000 0.000000 0.000000 3.050184 -0.707930 5.183912 -9.422580 -15.839613 3.773099 6.153816 -42.990638 -29.910327 6.037083 -50.846449 -5.037953 0.000000 0.000000 0.000000 -1.017541 0.669802 4.948154 15.505938 4.676724 -1.022336 -10.579639 45.089907 -35.894604 -1.307780 55.168845 -0.004434 0.000000 0.000000 0.000000 
10.583192 33.606182 -19.891918 -179.459491 60.185885 -179.757684 8.580582 5.549977 80.137769 -30.920601 -14.079837 -94.969921 15.001491 10.360812 43.020968 -10.275252 -0.515172 2.052148 0.000000 0.000000 0.000000 17.989583 -3.893512 86.264524 -20.823698 -25.010792 -118.501187 0.347407 -2.143362 48.954302 2.098393 1.320725 18.508103 0.000000 0.000000 0.000000 16.817937 0.296243 85.720226 9.269311 -2.745849 8.953626 1.626491 -4.036413 8.583587 -0.067273 0.030553 -0.036539 2.022213 -2.145508 10.571054 -2.743432 -12.439774 4.298006 0.000000 0.000000 0.000000 3.088814 -0.727224 5.180910 -8.865784 -15.843691 3.567446 5.807721 -42.586031 -30.362602 6.041882 -51.530478 -5.375457 0.000000 0.000000 0.000000 -0.979233 0.729878 4.903250 15.811791 4.986588 -0.699156 -10.796436 45.473829 -35.203109 -1.575909 55.822733 -0.357137 0.000000 0.000000 0.000000 
10.554190 33.606728 -19.985023 -179.481402 59.884394 -179.872226 8.414984 5.558121 80.237497 -30.290017 -14.230887 -95.338581 14.801756 10.271513 43.325242 -10.125987 -0.418410 2.155449 0.000000 0.000000 0.000000 17.873891 -3.957398 86.447157 -20.744178 -25.052780 -118.323547 0.340271 -2.175751 48.861729 1.875615 1.217364 18.237577 0.000000 0.000000 0.000000 16.768446 0.232285 85.985907 9.196501 -2.689485 9.024404 1.616462 -4.038657 8.495925 -0.045270 0.042756 -0.064506 1.919044 -2.045527 10.520313 -3.088115 -12.515932 3.382827 0.000000 0.000000 0.000000 2.968519 -0.759954 5.118938 -8.262844 -15.832018 3.439965 5.662123 -41.833515 -30.928169 6.361233 -52.112608 -5.981885 0.000000 0.000000 0.000000 -1.071775 0.749499 4.843803 16.082770 5.315795 -0.605153 -10.560138 45.816574 -33.755655 -1.521223 56.549646 -0.386757 0.000000 0.000000 0.000000 
